<?xml version="1.0" encoding="UTF-8"?>
<!DOCTYPE svg PUBLIC "-//W3C//DTD SVG 1.1//EN" "http://www.w3.org/Graphics/SVG/1.1/DTD/svg11.dtd">
<!-- Creator: CorelDRAW X7 -->
<svg xmlns="http://www.w3.org/2000/svg" xml:space="preserve" width="230mm" height="70mm" version="1.1" style="shape-rendering:geometricPrecision; text-rendering:geometricPrecision; image-rendering:optimizeQuality; fill-rule:evenodd; clip-rule:evenodd"
viewBox="0 0 23000 7000"
 xmlns:xlink="http://www.w3.org/1999/xlink">
 <defs>
  <style type="text/css">
   <![CDATA[
    .str0 {stroke:white;stroke-width:20}
    .fil0 {fill:#E37314}
    .fil1 {fill:#00ADAA;fill-rule:nonzero}
   ]]>
  </style>
 </defs>
 <g id="Logo">
  <metadata id="CorelCorpID_0Corel-Layer"/>
  <g id="StickmanRight">
   <path id="Right_x0020_Arm" class="fil0 str0" d="M13251 1922l0 0c105,147 71,354 -77,459l-1483 1058c-148,105 -355,71 -460,-77l0 0c-105,-147 -70,-354 77,-460l1483 -1057c148,-106 355,-71 460,77z"/>
   <path id="Right_x0020_Upper_x0020_Body" class="fil0 str0" d="M12983 1783l0 0c181,0 329,149 329,330l0 3955c0,181 -148,329 -329,329l0 0c-182,0 -330,-148 -330,-329l0 -3955c0,-181 148,-330 330,-330z"/>
   <path id="Right_x0020_Head" class="fil0 str0" d="M12967 692c264,0 478,214 478,478 0,264 -214,478 -478,478 -264,0 -478,-214 -478,-478 0,-264 214,-478 478,-478z"/>
  </g>
  <g id="StickmanLeft">
   <path id="Left_x0020_Upper_x0020_Body" class="fil0 str0" d="M10016 1783l0 0c182,0 330,149 330,330l0 3955c0,181 -148,329 -330,329l0 0c-181,0 -329,-148 -329,-329l0 -3955c0,-181 148,-330 329,-330z"/>
   <path id="Left_x0020_Arm" class="fil0 str0" d="M9748 1922l0 0c105,-148 312,-183 460,-77l1483 1057c147,106 182,313 77,460l0 0c-105,148 -312,182 -460,77l-1483 -1058c-148,-105 -182,-312 -77,-459z"/>
   <path id="Left_x0020_Head" class="fil0 str0" d="M10038 692c264,0 478,214 478,478 0,264 -214,478 -478,478 -264,0 -478,-214 -478,-478 0,-264 214,-478 478,-478z"/>
  </g>
  <path class="fil1 str0" d="M1223 4080l472 0c228,0 403,-46 524,-140 120,-94 181,-236 181,-426 0,-191 -61,-325 -181,-403 -121,-78 -296,-116 -524,-116l-472 0 0 1085zm1220 1653l-710 -1267 -510 0 0 1267 -476 0 0 -3119 1005 0c162,0 311,15 448,45 136,30 254,81 354,152 100,72 178,165 234,279 55,114 83,255 83,424 0,241 -59,435 -178,581 -120,146 -279,249 -479,309l767 1329 -538 0zm2152 57c-178,0 -341,-38 -490,-114 -150,-76 -278,-184 -386,-324 -108,-140 -191,-310 -250,-512 -59,-202 -88,-428 -88,-679 0,-250 29,-475 88,-673 59,-199 142,-367 250,-505 108,-138 236,-244 386,-317 149,-73 312,-110 490,-110 178,0 341,37 491,110 149,73 277,179 383,317 106,138 190,306 250,505 60,198 91,423 91,673 0,251 -31,477 -91,679 -60,202 -144,372 -250,512 -106,140 -234,248 -383,324 -150,76 -313,114 -491,114zm0 -414c108,0 207,-29 295,-86 89,-57 166,-139 229,-245 64,-107 113,-234 148,-384 35,-149 52,-315 52,-500 0,-371 -66,-662 -198,-874 -131,-211 -307,-316 -526,-316 -219,0 -394,105 -526,316 -132,212 -198,503 -198,874 0,185 18,351 53,500 35,150 84,277 147,384 64,106 140,188 229,245 89,57 187,86 295,86zm2858 414c-178,0 -342,-38 -491,-114 -149,-76 -278,-184 -386,-324 -108,-140 -191,-310 -250,-512 -58,-202 -88,-428 -88,-679 0,-250 30,-475 88,-673 59,-199 142,-367 250,-505 108,-138 237,-244 386,-317 149,-73 313,-110 491,-110 177,0 341,37 490,110 149,73 277,179 384,317 106,138 189,306 250,505 60,198 90,423 90,673 0,251 -30,477 -90,679 -61,202 -144,372 -250,512 -107,140 -235,248 -384,324 -149,76 -313,114 -490,114zm0 -414c108,0 206,-29 295,-86 89,-57 165,-139 229,-245 63,-107 112,-234 147,-384 35,-149 53,-315 53,-500 0,-371 -66,-662 -198,-874 -132,-211 -307,-316 -526,-316 -219,0 -395,105 -527,316 -131,212 -197,503 -197,874 0,185 17,351 52,500 35,150 84,277 148,384 63,106 140,188 228,245 89,57 188,86 296,86zm6937 -43l762 0 0 -2319 -762 0 0 -400 2000 0 0 400 -762 0 0 2319 762 0 0 400 -2000 0 0 -400zm2953 -2719l1957 0 0 400 -1481 0 0 890 1253 0 0 400 -1253 0 0 1029 1529 0 0 400 -2005 0 0 -3119zm2910 2390c120,111 256,201 407,269 151,69 307,103 469,103 206,0 364,-41 474,-124 109,-83 164,-194 164,-333 0,-70 -13,-131 -40,-181 -27,-51 -65,-95 -112,-131 -48,-37 -105,-69 -172,-98 -66,-29 -139,-59 -219,-90l-438 -196c-79,-31 -159,-70 -238,-116 -79,-46 -151,-102 -214,-167 -64,-65 -115,-141 -155,-229 -40,-87 -60,-188 -60,-302 0,-121 26,-233 77,-338 50,-105 123,-195 216,-272 94,-76 205,-135 334,-178 128,-43 270,-65 426,-65 194,0 375,35 543,105 168,70 313,165 433,286l-247 305c-102,-89 -212,-158 -329,-207 -118,-50 -251,-74 -400,-74 -178,0 -318,36 -419,109 -102,73 -153,173 -153,300 0,70 15,129 46,177 30,47 70,89 121,126 51,36 109,68 174,95 65,27 132,55 202,83l424 186c99,38 189,82 272,131 82,49 154,106 216,172 62,65 111,141 146,228 34,87 52,188 52,303 0,123 -25,241 -76,352 -51,111 -126,208 -224,290 -99,83 -218,148 -357,196 -140,47 -299,71 -477,71 -225,0 -435,-40 -628,-121 -194,-81 -365,-195 -515,-341l277 -324z"/>
 </g>
</svg>
